<?xml version="1.0" encoding="UTF-8"?>  
<svg version="1.1" xmlns="http://www.w3.org/2000/svg" xmlns:xlink="http://www.w3.org/1999/xlink" xml:space="preserve">  
        <symbol id="antenna">
            <path d="M59.5463 44.1952L42.6599 27.1851L44.534 17.9541C45.0176 18.1429 45.5318 18.2416 46.0508 18.2453H46.0636C48.4482 18.2735 50.404 16.3633 50.4323 13.9788C50.4606 11.5943 48.5503 9.6384 46.1658 9.61013C43.7812 9.582 41.8254 11.4921 41.7971 13.8767C41.7911 14.3869 41.8755 14.8941 42.0466 15.3749L32.1266 16.5856L15.9452 0.32C15.7467 0.117467 15.4757 0.00226667 15.1921 0C14.9121 0.00146667 14.644 0.112933 14.4455 0.3104L11.4204 3.3184C11.004 3.73493 11.004 4.41013 11.4204 4.82667L13.0481 6.47787C6.74201 18.0737 8.79028 32.4335 18.0871 41.8037C18.1724 41.8853 18.2713 41.9513 18.3793 41.9989C18.3121 42.3599 18.2771 42.7261 18.2748 43.0933V55.4667H5.47481C2.53081 55.4701 0.144946 57.856 0.141479 60.8V62.9333C0.141479 63.5224 0.61908 64 1.20815 64H50.2748C50.8639 64 51.3415 63.5224 51.3415 62.9333V60.8C51.338 57.856 48.9522 55.4701 46.0082 55.4667H33.2082V49.9829C35.2134 50.4035 37.2564 50.6179 39.3052 50.6229C44.2215 50.6176 49.0595 49.392 53.3852 47.056L55.0215 48.7019C55.22 48.9044 55.491 49.0196 55.7746 49.0219C56.0546 49.0204 56.3227 48.9089 56.5212 48.7115L59.5463 45.7035C59.9627 45.2869 59.9627 44.6117 59.5463 44.1952ZM44.5596 12.4661C45.395 11.6352 46.7458 11.6389 47.5766 12.4743C48.4075 13.3096 48.4038 14.6604 47.5684 15.4912C47.1686 15.8889 46.6275 16.1121 46.0635 16.112H46.0571C44.879 16.1059 43.9287 15.1459 43.9348 13.9676C43.9378 13.4036 44.1639 12.8639 44.5638 12.4661H44.5596ZM42.0487 19.4752L40.8519 25.3664L38.5009 23.0016L42.0487 19.4752ZM40.837 17.6715L36.997 21.4891L34.0263 18.5024L40.837 17.6715ZM46.0082 57.6C47.7755 57.6 49.2082 59.0327 49.2082 60.8V61.8667H2.27481V60.8C2.27481 59.0327 3.70748 57.6 5.47481 57.6H46.0082ZM31.0748 53.3333V55.4667H20.4081V53.3333H31.0748ZM20.4081 51.2V43.0933C20.4081 40.5056 22.8007 38.4 25.7415 38.4C28.6823 38.4 31.0748 40.5056 31.0748 43.0933V51.2H20.4081ZM33.2082 47.808V43.0933C33.2082 39.3291 29.8588 36.2667 25.7415 36.2667C23.0793 36.2259 20.59 37.5809 19.1793 39.8389C11.0639 31.2913 9.23641 18.5485 14.6221 8.06467L51.8258 45.4816C46.081 48.404 39.4955 49.2268 33.2082 47.808ZM55.7863 46.4405L54.2834 44.9291L15.1815 5.59147L13.6721 4.07893L15.1815 2.57493L31.0513 18.5344C31.0588 18.5344 31.0631 18.5483 31.0706 18.5536L57.2999 44.9365L55.7863 46.4405Z" fill="#2E2F42"/>
            <path d="M25.7511 40.5333H25.7415C23.9742 40.5306 22.5394 41.9612 22.5367 43.7285C22.534 45.4958 23.9646 46.9306 25.7319 46.9333H25.7415C27.5088 46.936 28.9436 45.5054 28.9463 43.7381C28.9489 41.9708 27.5184 40.536 25.7511 40.5333ZM26.4978 44.4896C26.297 44.6893 26.0248 44.801 25.7415 44.8C25.1524 44.7969 24.6774 44.3169 24.6804 43.7278C24.6819 43.4458 24.795 43.176 24.9948 42.977C25.1934 42.7796 25.4615 42.6681 25.7415 42.6666C26.3306 42.6697 26.8056 43.1497 26.8026 43.7388C26.8011 44.0208 26.688 44.2906 26.4882 44.4896H26.4978Z" fill="#4D5AE5"/>
        </symbol>
        <symbol id="clock">
            <path d="M62.5933 30.6025C62.5899 13.6978 48.8828 -0.00341734 31.9775 6.39362e-07C15.0728 0.00341861 1.37158 13.7109 1.375 30.6157C1.37793 43.9316 9.98877 55.7178 22.6738 59.7681C22.7949 59.8062 22.9209 59.8257 23.0474 59.8252C23.2886 59.8247 23.5249 59.7603 23.7324 59.6377C24.0024 59.478 24.2041 59.2241 24.2988 58.9248L32.0288 34.4248C34.1421 34.4141 35.8462 32.6919 35.835 30.5791C35.8242 28.4658 34.1025 26.7617 31.9893 26.7725C31.4209 26.7749 30.8599 26.9058 30.3491 27.1553L20.1372 16.9419C19.6304 16.4526 18.8232 16.4668 18.334 16.9731C17.8564 17.4678 17.8564 18.251 18.334 18.7456L28.5405 28.9639C27.7573 30.5625 28.2051 32.4922 29.6133 33.582L22.248 56.9277C7.69238 51.5659 0.239258 35.4199 5.60108 20.8643C10.9629 6.30859 27.1089 -1.14453 41.6646 4.21729C56.2202 9.5791 63.6733 25.7256 58.3115 40.2808C55.6919 47.3921 50.3096 53.1431 43.3872 56.2275L42.5913 52.479C42.4458 51.79 41.7686 51.3496 41.0796 51.4956C40.8623 51.542 40.6606 51.6441 40.4946 51.792L32.8208 58.6431C32.2944 59.1113 32.2476 59.9175 32.7163 60.4439C32.8687 60.6148 33.064 60.7417 33.2827 60.8115L43.0801 63.9385C43.7505 64.1538 44.4688 63.7852 44.6841 63.1143C44.7524 62.9024 44.7637 62.6768 44.7178 62.459L43.9356 58.7808C55.2642 54.0049 62.6196 42.8965 62.5933 30.6025ZM31.9844 29.3272C32.6885 29.3272 33.2598 29.8984 33.2598 30.6025C33.2598 31.3071 32.6885 31.8779 31.9844 31.8779C31.2798 31.8779 30.709 31.3071 30.709 30.6025C30.709 29.8984 31.2798 29.3272 31.9844 29.3272ZM36.1851 59.0552L40.5532 55.1587L41.7588 60.8394L36.1851 59.0552Z" fill="#2E2F42"/>
            <path d="M30.709 6.37012V8.9209C30.709 9.62549 31.2798 10.1963 31.9844 10.1963C32.6885 10.1963 33.2598 9.62549 33.2598 8.9209V6.37012C33.2598 5.66602 32.6885 5.09473 31.9844 5.09473C31.2798 5.09473 30.709 5.66602 30.709 6.37012Z" fill="#4D5AE5"/>
            <path d="M7.75195 29.3271C7.04736 29.3271 6.47656 29.8984 6.47656 30.6025C6.47656 31.3071 7.04736 31.8779 7.75195 31.8779H10.3027C11.0073 31.8779 11.5781 31.3071 11.5781 30.6025C11.5781 29.8984 11.0073 29.3271 10.3027 29.3271H7.75195Z" fill="#4D5AE5"/>
            <path d="M56.2162 31.8779C56.9208 31.8779 57.4916 31.3071 57.4916 30.6025C57.4916 29.8984 56.9208 29.3271 56.2162 29.3271H53.6655C52.9614 29.3271 52.3901 29.8984 52.3901 30.6025C52.3901 31.3071 52.9614 31.8779 53.6655 31.8779H56.2162Z" fill="#4D5AE5"/>
        </symbol>
        <symbol id="triangle">
            <line x1="50" y1="0" x2="0" y2="50" style="stroke:rgb(255,0,0);stroke-width:2" />
            <line x1="50" y1="0" x2="100" y2="50" style="stroke:rgb(255,0,0);stroke-width:2" />
            <line x1="0" y1="50" x2="100" y2="50" style="stroke:rgb(255,0,0);stroke-width:2" />
        </symbol>
    </svg>   